name C:\Users\u0150099\Documents\master_thesis\3dpredictsim\Results\debug\Fal_s1_mtp_sd_MTPp_k17_d05_ig21.mot
datacolumns 126
datarows 4
range 0.52869023 0.56041165
endheader
time	pelvis_tilt	pelvis_list	pelvis_rotation	pelvis_tx	pelvis_ty	pelvis_tz	hip_flexion_l	hip_adduction_l	hip_rotation_l	hip_flexion_r	hip_adduction_r	hip_rotation_r	knee_angle_l	knee_angle_r	ankle_angle_l	ankle_angle_r	subtalar_angle_l	subtalar_angle_r	mtj_angle_l	mtj_angle_r	mtp_angle_l	mtp_angle_r	lumbar_extension	lumbar_bending	lumbar_rotation	arm_flex_l	arm_add_l	arm_rot_l	arm_flex_r	arm_add_r	arm_rot_r	elbow_flex_l	elbow_flex_r	glut_med1_l/activation	glut_med2_l/activation	glut_med3_l/activation	glut_min1_l/activation	glut_min2_l/activation	glut_min3_l/activation	semimem_l/activation	semiten_l/activation	bifemlh_l/activation	bifemsh_l/activation	sar_l/activation	add_long_l/activation	add_brev_l/activation	add_mag1_l/activation	add_mag2_l/activation	add_mag3_l/activation	tfl_l/activation	pect_l/activation	grac_l/activation	glut_max1_l/activation	glut_max2_l/activation	glut_max3_l/activation	iliacus_l/activation	psoas_l/activation	quad_fem_l/activation	gem_l/activation	peri_l/activation	rect_fem_l/activation	vas_med_l/activation	vas_int_l/activation	vas_lat_l/activation	med_gas_l/activation	lat_gas_l/activation	soleus_l/activation	tib_post_l/activation	flex_dig_l/activation	flex_hal_l/activation	tib_ant_l/activation	per_brev_l/activation	per_long_l/activation	per_tert_l/activation	ext_dig_l/activation	ext_hal_l/activation	ercspn_l/activation	intobl_l/activation	extobl_l/activation	glut_med1_r/activation	glut_med2_r/activation	glut_med3_r/activation	glut_min1_r/activation	glut_min2_r/activation	glut_min3_r/activation	semimem_r/activation	semiten_r/activation	bifemlh_r/activation	bifemsh_r/activation	sar_r/activation	add_long_r/activation	add_brev_r/activation	add_mag1_r/activation	add_mag2_r/activation	add_mag3_r/activation	tfl_r/activation	pect_r/activation	grac_r/activation	glut_max1_r/activation	glut_max2_r/activation	glut_max3_r/activation	iliacus_r/activation	psoas_r/activation	quad_fem_r/activation	gem_r/activation	peri_r/activation	rect_fem_r/activation	vas_med_r/activation	vas_int_r/activation	vas_lat_r/activation	med_gas_r/activation	lat_gas_r/activation	soleus_r/activation	tib_post_r/activation	flex_dig_r/activation	flex_hal_r/activation	tib_ant_r/activation	per_brev_r/activation	per_long_r/activation	per_tert_r/activation	ext_dig_r/activation	ext_hal_r/activation	ercspn_r/activation	intobl_r/activation	extobl_r/activation	
          0.52869023	         -2.93017651	          1.74007978	         -4.39149188	          0.70315801	          0.90252468	          0.00408108	         31.08831001	          3.03128435	         -0.81632732	        -18.18447354	         -0.21371681	          7.97690537	        -12.95879880	         -3.57390032	          8.12926697	          4.98625010	         -5.65679374	          9.15205945	          0.29096292	         13.42446257	         -3.08499185	         -0.63590274	          1.66522817	         -6.51074758	        -13.46964010	          7.01345022	          6.51053153	        -13.62025198	         19.38135683	         20.12305861	         33.36057160	         86.51662706	         86.51662706	          0.05000012	          0.05352976	          0.05000033	          0.05881135	          0.05008454	          0.05000071	          0.07389720	          0.06917640	          0.31380155	          0.05000014	          0.05000011	          0.15342089	          0.18669880	          0.18828771	          0.17669169	          0.12848607	          0.05000019	          0.05299005	          0.15596973	          0.05881184	          0.08031468	          0.11157017	          0.05000010	          0.05000009	          0.11215131	          0.05000088	          0.05000055	          0.05000008	          0.05806001	          0.06088880	          0.05010632	          0.06594670	          0.05000005	          0.06017266	          0.05000035	          0.05000065	          0.05000109	          0.47171395	          0.30372507	          0.18922700	          0.25713165	          0.44756055	          0.18190686	          0.08450306	          0.10281004	          0.10523038	          0.32033702	          0.12071830	          0.09532225	          0.45112056	          0.28191212	          0.14880579	          0.05000048	          0.05000009	          0.05000006	          0.09011580	          0.13401427	          0.05000001	          0.05000003	          0.05000006	          0.05000020	          0.05000017	          0.63847943	          0.05000011	          0.05000017	          0.05881090	          0.05007636	          0.05000052	          0.40350095	          0.70664132	          0.05000015	          0.05001951	          0.06836264	          0.24292437	          0.05000032	          0.05000029	          0.05000028	          0.36896301	          0.50062824	          0.35090122	          0.27325155	          0.37864938	          0.45533990	          0.05426536	          0.05000013	          0.14898581	          0.05000005	          0.05000001	          0.05000006	          0.05000000	          0.05000000	          0.05000000	
          0.53926404	         -2.92794925	          1.94863560	         -4.73422818	          0.71965437	          0.90141084	          0.00377796	         30.59104500	          3.51940432	         -0.69548788	        -18.15130731	         -0.62144539	          7.81113362	        -12.38728702	         -5.41871770	          7.80680678	          4.46231624	         -6.00109970	         10.06163770	          0.33098228	         14.52073525	         -2.91049689	         -0.90376997	          1.78246353	         -7.32481885	        -13.45289081	          6.79778626	          6.25245757	        -13.56216057	         19.30745444	         19.62255591	         34.73986121	         86.51662706	         86.51662706	          0.09151157	          0.05000008	          0.05000024	          0.05000006	          0.05000010	          0.05000029	          0.06282561	          0.05881201	          0.29897494	          0.05000008	          0.05000042	          0.15574886	          0.20823395	          0.17937818	          0.20673246	          0.15158729	          0.05000032	          0.05895627	          0.13260162	          0.05000032	          0.08142144	          0.11742026	          0.05000009	          0.05000005	          0.23946915	          0.05000025	          0.05000005	          0.05000005	          0.12871675	          0.13017212	          0.10961999	          0.05829304	          0.05016557	          0.05881149	          0.05000002	          0.05000014	          0.05000016	          0.51693741	          0.33741484	          0.18650149	          0.36001019	          0.48836837	          0.29372063	          0.07184230	          0.08740641	          0.08946412	          0.27238404	          0.10263154	          0.08104049	          0.38353099	          0.23967432	          0.12651080	          0.05000030	          0.05000007	          0.05000005	          0.07661410	          0.11393546	          0.05001189	          0.05000011	          0.05000009	          0.05000019	          0.05000012	          0.56523373	          0.05000334	          0.05000019	          0.05000058	          0.05000023	          0.05000017	          0.34304597	          0.68462917	          0.05000002	          0.05000008	          0.05812015	          0.20652799	          0.05000017	          0.05000015	          0.05000015	          0.31368269	          0.42562109	          0.33513793	          0.26761951	          0.39005796	          0.46217786	          0.05000000	          0.05881160	          0.16061142	          0.05000005	          0.05000001	          0.05000004	          0.05000000	          0.05000000	          0.05000000	
          0.54983784	         -2.92182643	          2.15058905	         -5.05701913	          0.73649859	          0.90035284	          0.00345242	         30.02070108	          4.00327119	         -0.53352814	        -18.02150931	         -1.01957356	          7.63642301	        -12.36934304	         -7.44577608	          7.26187444	          3.75331863	         -6.33925764	         10.95563104	          0.36506766	         15.60551880	         -2.71052807	         -1.16789533	          1.89296465	         -8.17926976	        -13.45050899	          6.77069570	          5.89009308	        -13.51551011	         19.18702252	         19.18001644	         36.16415136	         86.51662706	         86.51662706	          0.07780076	          0.05000019	          0.05000005	          0.05002339	          0.05000048	          0.05000012	          0.05341269	          0.05000046	          0.25418073	          0.05000014	          0.05000022	          0.13241374	          0.17703537	          0.34221936	          0.23980120	          0.12887759	          0.05000005	          0.05012354	          0.11273471	          0.05014864	          0.09168905	          0.14521779	          0.05000020	          0.05000839	          0.55391999	          0.15500966	          0.05881267	          0.06917587	          0.19356007	          0.21834416	          0.17094184	          0.05000000	          0.05000000	          0.05000000	          0.05000031	          0.05000031	          0.05000018	          0.58418963	          0.32167831	          0.20367531	          0.49964605	          0.51481206	          0.24971398	          0.06107845	          0.07431064	          0.07606006	          0.23157380	          0.08725465	          0.06889851	          0.32606804	          0.20376484	          0.10755618	          0.05000109	          0.05000010	          0.05000008	          0.06513531	          0.09686497	          0.12000057	          0.10934458	          0.06917232	          0.05003324	          0.05001270	          0.52976828	          0.05607645	          0.05000098	          0.05000097	          0.05000089	          0.05000093	          0.29164871	          0.60070611	          0.05000029	          0.05879757	          0.05881149	          0.18319262	          0.15165786	          0.17109132	          0.13133052	          0.26668480	          0.36185191	          0.28986826	          0.26013897	          0.36575827	          0.44359790	          0.05000000	          0.05000011	          0.16172901	          0.05000002	          0.05000000	          0.05000004	          0.05727311	          0.06917584	          0.05000001	
          0.56041165	         -2.91252682	          2.35659738	         -5.35840856	          0.75361885	          0.89935735	          0.00314140	         29.35704143	          4.41661748	         -0.30257701	        -17.80967164	         -1.41337571	          7.44577877	        -12.88826117	         -9.60916679	          6.63841343	          2.82886256	         -6.68985452	         11.79508265	          0.30061071	         16.63361304	         -2.49063201	         -1.43834213	          1.99268178	         -9.05650573	        -13.46545493	          6.90376274	          5.43778148	        -13.47725395	         19.04493270	         18.77803611	         37.62583560	         86.51662706	         86.51662706	          0.32617645	          0.05000002	          0.29779794	          0.05000002	          0.05000003	          0.05000007	          0.08127038	          0.05000010	          0.21609781	          0.05000001	          0.05000010	          0.11257475	          0.32381087	          0.29094606	          0.22588505	          0.17443273	          0.05000010	          0.07022984	          0.15073250	          0.05000004	          0.15006391	          0.15419958	          0.05000009	          0.05000004	          0.47092829	          0.13178517	          0.05000111	          0.05881151	          0.16455975	          0.18563054	          0.14533031	          0.05881153	          0.05881157	          0.05881150	          0.05881149	          0.05881115	          0.05881140	          0.49666276	          0.33272759	          0.17315948	          0.42478611	          0.54349938	          0.21230031	          0.05192731	          0.06317710	          0.06466427	          0.28557244	          0.07418163	          0.05857572	          0.27721461	          0.17323555	          0.09144145	          0.05000061	          0.05000020	          0.05000018	          0.05537634	          0.08235208	          0.15615263	          0.17262389	          0.05881159	          0.05878682	          0.05881958	          0.56084545	          0.06661688	          0.05000071	          0.05000407	          0.05000215	          0.05000593	          0.24795210	          0.57830817	          0.05000030	          0.05000027	          0.05000003	          0.15574557	          0.12893592	          0.14545758	          0.11165400	          0.22672844	          0.30763702	          0.24643840	          0.22368044	          0.31095838	          0.37713571	          0.05000000	          0.05000414	          0.19273444	          0.05000002	          0.05000000	          0.05000003	          0.06915200	          0.05881149	          0.05000005	
